<?xml version="1.0" standalone="no"?><!DOCTYPE svg PUBLIC "-//W3C//DTD SVG 1.1//EN" "http://www.w3.org/Graphics/SVG/1.1/DTD/svg11.dtd"><svg class="icon" width="200px" height="200.00px" viewBox="0 0 1024 1024" version="1.1" xmlns="http://www.w3.org/2000/svg"><path fill="#333333" d="M688.163 957.796c-5.185 0-10.531-0.08-16.077-0.25-12.633-0.921-111.919-9.54-155.205-53.867h-11.042c-43.296 44.317-142.531 52.946-154.314 53.817-6.437 0.22-11.803 0.3-16.968 0.3-68.323 0-116.374-13.905-142.822-41.334-17.459-18.099-19.711-36.569-19.941-42.805-4.365-47.14 27.579-78.804 56.68-95.602-15.567-22.604-27.749-44.748-36.359-62.046-22.864 29.381-42.055 42.815-60.394 42.815h-0.01c-10.141 0-19.341-4.064-26.608-11.753-21.963-23.255-20.622-78.543-19.691-94.941 0.05-0.821 0.15-1.652 0.29-2.463 16.417-91.037 74.789-155.535 96.392-176.778-6.026-70.405 16.277-101.588 31.413-114.432C228.004 70.093 480.212 61.684 509.253 61.684l2.583 0.03 2.302-0.02c29.111 0.14 280.558 9.73 295.073 296.765 15.116 12.834 37.44 44.037 31.393 114.432 21.623 21.253 79.985 85.751 96.402 176.778 0.14 0.811 0.24 1.642 0.28 2.473 0.941 16.387 2.262 71.676-19.701 94.931-7.268 7.688-16.477 11.753-26.608 11.753-18.339 0-37.52-13.434-60.384-42.815-8.609 17.308-20.782 39.452-36.359 62.056 29.091 16.798 61.025 48.461 56.7 95.592-0.24 6.217-2.503 24.696-19.981 42.815-26.467 27.417-74.518 41.312-142.79 41.322z m-191.694-95.121h29.782a20.499 20.499 0 0 1 16.457 8.279c23.024 31.003 104.711 43.666 131.52 45.659 4.204 0.1 9.15 0.18 13.915 0.18 118.085-0.01 121.789-44.027 121.809-44.477 4.625-47.23-52.856-66.421-53.437-66.611a20.466 20.466 0 0 1-13.274-13.524 20.499 20.499 0 0 1 3.464-18.63c38.981-49.693 60.624-105.492 60.845-106.043a20.495 20.495 0 0 1 16.998-13.044c7.848-0.741 15.156 2.773 19.341 9.24 26.168 40.353 40.283 50.674 45.328 53.287 5.085-8.829 8.449-36.469 7.208-61.285-17.599-94.731-89.956-158.689-90.676-159.329-5.125-4.455-7.728-11.172-6.927-17.899 8.93-74.829-18.039-90.176-18.299-90.316-7.528-3.063-11.652-9.87-11.893-17.989-7.528-253.449-213.337-267.274-254.52-267.474l-2.753 0.01-2.102-0.02c-25.307 0-247.483 7.508-255.181 267.484a20.515 20.515 0 0 1-12.784 18.39l0.01-0.01c0.19 0-26.248 15.707-17.408 89.926 0.801 6.727-1.812 13.444-6.917 17.899-0.731 0.641-73.078 64.589-90.686 159.319-1.221 24.906 2.152 52.616 7.238 61.355 4.715-2.453 18.85-12.573 45.298-53.347 4.184-6.457 11.652-10.111 19.321-9.23a20.49 20.49 0 0 1 17.008 13.014c0.22 0.561 22.053 56.58 60.855 106.063a20.55 20.55 0 0 1 3.474 18.64 20.485 20.485 0 0 1-13.284 13.514c-2.312 0.771-58.052 19.821-53.527 64.649 0.09 0.931 0.12 1.862 0.09 2.803v-0.01c0.06 0 5.176 47.03 136.635 43.416 39.062-2.963 110.127-18.029 130.619-45.608a20.482 20.482 0 0 1 16.453-8.281z" /></svg>