<?xml version="1.0" standalone="no"?><!DOCTYPE svg PUBLIC "-//W3C//DTD SVG 1.1//EN" "http://www.w3.org/Graphics/SVG/1.1/DTD/svg11.dtd"><svg class="icon" width="200px" height="167.59px" viewBox="0 0 1222 1024" version="1.1" xmlns="http://www.w3.org/2000/svg"><path fill="#333333" d="M1219.505915 708.631815c0-171.39002-161.502135-313.116384-362.555813-313.116383s-362.555812 141.726363-362.555812 313.116383 161.502135 313.116384 362.555812 313.116384c52.735391 0 105.470782-9.887886 148.318287-26.367696 19.775772-9.887886 82.399048 39.551543 102.17482 26.367696 16.47981-9.887886-13.183848-75.807124 0-88.990972 69.215201-56.031353 112.062706-135.134439 112.062706-224.125412z m-174.685983 148.318287c-13.183848 9.887886-23.071734 23.071734-26.367695 36.255581-16.47981 0-29.663657 0-46.143467 6.591924-36.255581 13.183848-72.511162 19.775772-112.062706 19.775772-148.318287 0-263.676955-98.878858-263.676954-214.237526s115.358668-214.237526 263.676954-214.237525 263.676955 98.878858 263.676955 214.237525c-3.295962 59.327315-29.663657 112.062706-79.103087 151.614249zM741.591435 642.712577m-49.439429 0a49.439429 49.439429 0 1 0 98.878858 0 49.439429 49.439429 0 1 0-98.878858 0ZM972.30877 642.712577m-49.439429 0a49.439429 49.439429 0 1 0 98.878858 0 49.439429 49.439429 0 1 0-98.878858 0ZM823.990483 362.555812c0-201.053678-184.573868-362.555812-411.995242-362.555812S0 161.502135 0 362.555812c0 121.950591 69.215201 230.717335 174.685982 296.636574 19.775772 13.183848-39.551543 118.65463-9.887885 131.838478s118.65463-82.399048 145.022325-75.807125c32.959619 6.591924 65.919239 9.887886 102.174819 9.887886 16.47981 0 36.255581 0 52.735391-3.295962-3.295962-16.47981-3.295962-29.663657-3.295962-46.143467 0-174.685982 161.502135-313.116384 362.555813-313.116384z m-458.138709 260.380993c-9.887886 0-23.071734-3.295962-32.959619-6.591924-26.367695-6.591924-46.143467-3.295962-65.919239 3.295962-6.591924-19.775772-19.775772-36.255581-39.551543-46.143467-79.103086-49.439429-125.246553-128.542515-125.246553-210.941564 0-141.726363 138.430401-263.676955 313.116383-263.676954 138.430401 0 253.789069 75.807124 296.636574 177.981944-184.573868 39.551543-323.004269 174.685982-346.076003 346.076003zM543.833719 280.156764m-49.439429 0a49.439429 49.439429 0 1 0 98.878858 0 49.439429 49.439429 0 1 0-98.878858 0ZM247.197145 280.156764m-49.439429 0a49.439429 49.439429 0 1 0 98.878858 0 49.439429 49.439429 0 1 0-98.878858 0Z" /></svg>